ffmpeg started on 2016-12-08 at 19:28:48
Report written to "Output/x264/results/ffmpeg/crowd_run_2160p50veryslow7000k.log"
Command line:
Tools/ffmpeg/ffmpeg -benchmark -y -i Input/y4m/crowd_run_2160p50.y4m -c:v libx264 -preset veryslow -b:v 7000k -an Output/x264/encoded/crowd_run_2160p50veryslow7000k.mkv
ffmpeg version N-82227-gdb23fde Copyright (c) 2000-2016 the FFmpeg developers
  built with gcc 5.4.0 (Ubuntu 5.4.0-6ubuntu1~16.04.2) 20160609
  configuration: --prefix=/home/jaroslav/ffmpeg_build --pkg-config-flags=--static --extra-cflags=-I/home/jaroslav/ffmpeg_build/include --extra-ldflags=-L/home/jaroslav/ffmpeg_build/lib --bindir=/home/jaroslav/bin --enable-gpl --enable-libass --enable-libfdk-aac --enable-libfreetype --enable-libmp3lame --enable-libopus --enable-libtheora --enable-libvorbis --enable-libvpx --enable-libx264 --enable-libx265 --enable-nvenc --enable-libmfx --enable-libxvid --enable-libgsm --enable-libopencore-amrnb --enable-version3 --enable-nonfree
  libavutil      55. 35.100 / 55. 35.100
  libavcodec     57. 66.101 / 57. 66.101
  libavformat    57. 57.100 / 57. 57.100
  libavdevice    57.  2.100 / 57.  2.100
  libavfilter     6. 66.100 /  6. 66.100
  libswscale      4.  3.100 /  4.  3.100
  libswresample   2.  4.100 /  2.  4.100
  libpostproc    54.  2.100 / 54.  2.100
Input #0, yuv4mpegpipe, from 'Input/y4m/crowd_run_2160p50.y4m':
  Duration: 00:00:10.00, start: 0.000000, bitrate: 4976642 kb/s
    Stream #0:0: Video: rawvideo (I420 / 0x30323449), yuv420p(progressive), 3840x2160, SAR 1:1 DAR 16:9, 50 fps, 50 tbr, 50 tbn, 50 tbc
[libx264 @ 0x378b1c0] using SAR=1/1
[libx264 @ 0x378b1c0] DPB size (16 frames, 518400 mbs) > level limit (5 frames, 184320 mbs)
[libx264 @ 0x378b1c0] using cpu capabilities: MMX2 SSE2Fast SSSE3 SSE4.2 AVX FMA3 AVX2 LZCNT BMI2
[libx264 @ 0x378b1c0] profile High, level 5.2
[libx264 @ 0x378b1c0] 264 - core 148 - H.264/MPEG-4 AVC codec - Copyleft 2003-2016 - http://www.videolan.org/x264.html - options: cabac=1 ref=16 deblock=1:0:0 analyse=0x3:0x133 me=umh subme=10 psy=1 psy_rd=1.00:0.00 mixed_ref=1 me_range=24 chroma_me=1 trellis=2 8x8dct=1 cqm=0 deadzone=21,11 fast_pskip=1 chroma_qp_offset=-2 threads=6 lookahead_threads=1 sliced_threads=0 nr=0 decimate=1 interlaced=0 bluray_compat=0 constrained_intra=0 bframes=8 b_pyramid=2 b_adapt=2 b_bias=0 direct=3 weightb=1 open_gop=0 weightp=2 keyint=250 keyint_min=25 scenecut=40 intra_refresh=0 rc_lookahead=60 rc=abr mbtree=1 bitrate=7000 ratetol=1.0 qcomp=0.60 qpmin=0 qpmax=69 qpstep=4 ip_ratio=1.40 aq=1:1.00
Output #0, matroska, to 'Output/x264/encoded/crowd_run_2160p50veryslow7000k.mkv':
  Metadata:
    encoder         : Lavf57.57.100
    Stream #0:0: Video: h264 (libx264) (H264 / 0x34363248), yuv420p, 3840x2160 [SAR 1:1 DAR 16:9], q=-1--1, 7000 kb/s, 50 fps, 1k tbn, 50 tbc
    Metadata:
      encoder         : Lavc57.66.101 libx264
    Side data:
      cpb: bitrate max/min/avg: 0/0/7000000 buffer size: 0 vbv_delay: -1
Stream mapping:
  Stream #0:0 -> #0:0 (rawvideo (native) -> h264 (libx264))
Press [q] to stop, [?] for help
frame=   13 fps=0.0 q=0.0 size=       0kB time=00:00:00.00 bitrate=N/A speed=   0x    frame=   26 fps= 22 q=0.0 size=       0kB time=00:00:00.00 bitrate=N/A speed=   0x    frame=   34 fps= 19 q=0.0 size=       0kB time=00:00:00.00 bitrate=N/A speed=   0x    frame=   41 fps= 18 q=0.0 size=       0kB time=00:00:00.00 bitrate=N/A speed=   0x    frame=   48 fps= 17 q=0.0 size=       0kB time=00:00:00.00 bitrate=N/A speed=   0x    frame=   55 fps= 17 q=0.0 size=       0kB time=00:00:00.00 bitrate=N/A speed=   0x    frame=   62 fps= 16 q=0.0 size=       0kB time=00:00:00.00 bitrate=N/A speed=   0x    frame=   71 fps= 16 q=0.0 size=       0kB time=00:00:00.00 bitrate=N/A speed=   0x    frame=   72 fps=6.2 q=0.0 size=       0kB time=00:00:00.00 bitrate=N/A speed=   0x    frame=   77 fps=5.9 q=45.0 size=       1kB time=-00:00:00.01 bitrate=N/A speed=N/A    frame=   78 fps=5.7 q=41.0 size=       1kB time=00:00:00.00 bitrate=5888.0kbits/s speed=7.34e-05x    frame=   79 fps=5.6 q=39.0 size=       1kB time=00:00:00.02 bitrate= 280.4kbits/s speed=0.00148x    frame=   82 fps=5.5 q=49.0 size=       1kB time=00:00:00.08 bitrate=  72.7kbits/s speed=0.00541x    frame=   85 fps=5.3 q=52.0 size=       1kB time=00:00:00.14 bitrate=  41.8kbits/s speed=0.00879x    frame=   86 fps=5.1 q=53.0 size=       1kB time=00:00:00.16 bitrate=  36.6kbits/s speed=0.00958x    frame=   90 fps=4.8 q=52.0 size=       1kB time=00:00:00.24 bitrate=  24.4kbits/s speed=0.013x    frame=   94 fps=4.7 q=51.0 size=       1kB time=00:00:00.32 bitrate=  18.3kbits/s speed=0.0159x    frame=   96 fps=4.5 q=51.0 size=       1kB time=00:00:00.36 bitrate=  16.3kbits/s speed=0.0168x    frame=   97 fps=4.4 q=51.0 size=       1kB time=00:00:00.38 bitrate=  15.5kbits/s speed=0.0173x    frame=   99 fps=4.1 q=51.0 size=       1kB time=00:00:00.42 bitrate=  14.0kbits/s speed=0.0174x    frame=  100 fps=4.0 q=51.0 size=       1kB time=00:00:00.44 bitrate=  13.4kbits/s speed=0.0178x    frame=  101 fps=4.0 q=51.0 size=       1kB time=00:00:00.46 bitrate=  12.8kbits/s speed=0.0181x    frame=  103 fps=3.9 q=51.0 size=       1kB time=00:00:00.50 bitrate=  11.8kbits/s speed=0.019x    frame=  104 fps=3.8 q=51.0 size=       1kB time=00:00:00.52 bitrate=  11.3kbits/s speed=0.0192x    frame=  105 fps=3.7 q=51.0 size=       1kB time=00:00:00.54 bitrate=  10.9kbits/s speed=0.0189x    frame=  107 fps=3.6 q=51.0 size=       1kB time=00:00:00.58 bitrate=  10.1kbits/s speed=0.0196x    frame=  108 fps=3.5 q=51.0 size=       1kB time=00:00:00.60 bitrate=   9.8kbits/s speed=0.0197x    frame=  109 fps=3.5 q=51.0 size=       1kB time=00:00:00.62 bitrate=   9.5kbits/s speed=0.0199x    frame=  111 fps=3.4 q=51.0 size=       1kB time=00:00:00.66 bitrate=   8.9kbits/s speed=0.02x    frame=  112 fps=3.3 q=51.0 size=       1kB time=00:00:00.68 bitrate=   8.6kbits/s speed=0.0203x    frame=  113 fps=3.3 q=51.0 size=       1kB time=00:00:00.70 bitrate=   8.4kbits/s speed=0.0206x    frame=  115 fps=3.2 q=50.0 size=       1kB time=00:00:00.74 bitrate=   7.9kbits/s speed=0.0205x    frame=  116 fps=3.1 q=51.0 size=       1kB time=00:00:00.76 bitrate=   7.7kbits/s speed=0.0206x    frame=  119 fps=3.1 q=50.0 size=       1kB time=00:00:00.82 bitrate=   7.2kbits/s speed=0.0217x    frame=  120 fps=3.1 q=50.0 size=       1kB time=00:00:00.84 bitrate=   7.0kbits/s speed=0.0217x    frame=  121 fps=3.0 q=50.0 size=       1kB time=00:00:00.86 bitrate=   6.8kbits/s speed=0.0211x    frame=  124 fps=3.0 q=50.0 size=       1kB time=00:00:00.92 bitrate=   6.4kbits/s speed=0.0219x    frame=  125 fps=2.9 q=50.0 size=       1kB time=00:00:00.94 bitrate=   6.3kbits/s speed=0.0219x    frame=  126 fps=2.9 q=50.0 size=       1kB time=00:00:00.96 bitrate=   6.1kbits/s speed=0.022x    frame=  128 fps=2.8 q=50.0 size=       1kB time=00:00:01.00 bitrate=   5.9kbits/s speed=0.0218x    frame=  129 fps=2.8 q=50.0 size=       1kB time=00:00:01.02 bitrate=   5.8kbits/s speed=0.0219x    frame=  131 fps=2.8 q=50.0 size=       1kB time=00:00:01.06 bitrate=   5.5kbits/s speed=0.0225x    frame=  132 fps=2.7 q=50.0 size=       1kB time=00:00:01.08 bitrate=   5.4kbits/s speed=0.0225x    frame=  134 fps=2.7 q=50.0 size=       1kB time=00:00:01.12 bitrate=   5.3kbits/s speed=0.0223x    frame=  135 fps=2.7 q=50.0 size=       1kB time=00:00:01.14 bitrate=   5.2kbits/s speed=0.0225x    frame=  138 fps=2.6 q=50.0 size=       1kB time=00:00:01.20 bitrate=   4.9kbits/s speed=0.0226x    frame=  140 fps=2.6 q=50.0 size=       1kB time=00:00:01.24 bitrate=   4.7kbits/s speed=0.023x    frame=  141 fps=2.6 q=50.0 size=       1kB time=00:00:01.26 bitrate=   4.7kbits/s speed=0.0231x    frame=  142 fps=2.5 q=50.0 size=       1kB time=00:00:01.28 bitrate=   4.6kbits/s speed=0.0228x    frame=  143 fps=2.5 q=50.0 size=       1kB time=00:00:01.30 bitrate=   4.5kbits/s speed=0.0229x    frame=  145 fps=2.5 q=49.0 size=       1kB time=00:00:01.34 bitrate=   4.4kbits/s speed=0.0228x    frame=  146 fps=2.4 q=50.0 size=       1kB time=00:00:01.36 bitrate=   4.3kbits/s speed=0.0228x    frame=  147 fps=2.4 q=50.0 size=       1kB time=00:00:01.38 bitrate=   4.3kbits/s speed=0.0229x    frame=  150 fps=2.4 q=49.0 size=       1kB time=00:00:01.44 bitrate=   4.1kbits/s speed=0.0232x    frame=  151 fps=2.4 q=49.0 size=       1kB time=00:00:01.46 bitrate=   4.0kbits/s speed=0.0229x    frame=  152 fps=2.4 q=49.0 size=       1kB time=00:00:01.48 bitrate=   4.0kbits/s speed=0.023x    frame=  156 fps=2.4 q=49.0 size=       1kB time=00:00:01.56 bitrate=   3.8kbits/s speed=0.0236x    frame=  157 fps=2.3 q=49.0 size=       1kB time=00:00:01.58 bitrate=   3.7kbits/s speed=0.0233x    frame=  158 fps=2.3 q=49.0 size=       1kB time=00:00:01.60 bitrate=   3.7kbits/s speed=0.0233x    frame=  160 fps=2.3 q=49.0 size=       1kB time=00:00:01.64 bitrate=   3.6kbits/s speed=0.0236x    frame=  161 fps=2.3 q=49.0 size=       1kB time=00:00:01.66 bitrate=   3.5kbits/s speed=0.0237x    frame=  162 fps=2.3 q=49.0 size=       1kB time=00:00:01.68 bitrate=   3.5kbits/s speed=0.0238x    frame=  163 fps=2.3 q=49.0 size=       1kB time=00:00:01.70 bitrate=   3.5kbits/s speed=0.0239x    frame=  164 fps=2.2 q=49.0 size=       1kB time=00:00:01.72 bitrate=   3.4kbits/s speed=0.0235x    frame=  165 fps=2.2 q=49.0 size=       1kB time=00:00:01.74 bitrate=   3.4kbits/s speed=0.0235x    frame=  166 fps=2.2 q=49.0 size=       1kB time=00:00:01.76 bitrate=   3.3kbits/s speed=0.0236x    frame=  168 fps=2.2 q=49.0 size=       1kB time=00:00:01.80 bitrate=   3.3kbits/s speed=0.0239x    frame=  169 fps=2.2 q=49.0 size=       1kB time=00:00:01.82 bitrate=   3.2kbits/s speed=0.0238x    frame=  171 fps=2.2 q=49.0 size=       1kB time=00:00:01.86 bitrate=   3.2kbits/s speed=0.0241x    frame=  172 fps=2.2 q=49.0 size=       1kB time=00:00:01.88 bitrate=   3.1kbits/s speed=0.0236x    frame=  173 fps=2.2 q=49.0 size=       1kB time=00:00:01.90 bitrate=   3.1kbits/s speed=0.0236x    frame=  175 fps=2.2 q=49.0 size=       1kB time=00:00:01.94 bitrate=   3.0kbits/s speed=0.024x    frame=  178 fps=2.1 q=49.0 size=       1kB time=00:00:02.00 bitrate=   2.9kbits/s speed=0.0238x    frame=  179 fps=2.1 q=49.0 size=       1kB time=00:00:02.02 bitrate=   2.9kbits/s speed=0.0238x    frame=  181 fps=2.1 q=49.0 size=       1kB time=00:00:02.06 bitrate=   2.9kbits/s speed=0.0241x    frame=  183 fps=2.1 q=49.0 size=       1kB time=00:00:02.10 bitrate=   2.8kbits/s speed=0.0243x    frame=  184 fps=2.1 q=49.0 size=       1kB time=00:00:02.12 bitrate=   2.8kbits/s speed=0.0241x    frame=  186 fps=2.1 q=49.0 size=       1kB time=00:00:02.16 bitrate=   2.7kbits/s speed=0.024x    frame=  187 fps=2.1 q=49.0 size=       1kB time=00:00:02.18 bitrate=   2.7kbits/s speed=0.024x    frame=  188 fps=2.1 q=49.0 size=       1kB time=00:00:02.20 bitrate=   2.7kbits/s speed=0.024x    frame=  191 fps=2.0 q=49.0 size=       1kB time=00:00:02.26 bitrate=   2.6kbits/s speed=0.0242x    frame=  192 fps=2.0 q=49.0 size=       1kB time=00:00:02.28 bitrate=   2.6kbits/s speed=0.024x    frame=  195 fps=2.0 q=49.0 size=       1kB time=00:00:02.34 bitrate=   2.5kbits/s speed=0.0244x    frame=  196 fps=2.0 q=49.0 size=       1kB time=00:00:02.36 bitrate=   2.5kbits/s speed=0.0244x    frame=  197 fps=2.0 q=49.0 size=       1kB time=00:00:02.38 bitrate=   2.5kbits/s speed=0.0243x    frame=  198 fps=2.0 q=49.0 size=       1kB time=00:00:02.40 bitrate=   2.5kbits/s speed=0.0242x    frame=  201 fps=2.0 q=49.0 size=       1kB time=00:00:02.46 bitrate=   2.4kbits/s speed=0.0244x    frame=  202 fps=2.0 q=49.0 size=       1kB time=00:00:02.48 bitrate=   2.4kbits/s speed=0.0244x    frame=  204 fps=2.0 q=48.0 size=       1kB time=00:00:02.52 bitrate=   2.3kbits/s speed=0.0246x    frame=  205 fps=2.0 q=48.0 size=       1kB time=00:00:02.54 bitrate=   2.3kbits/s speed=0.0242x    frame=  206 fps=1.9 q=48.0 size=       1kB time=00:00:02.56 bitrate=   2.3kbits/s speed=0.0242x    frame=  207 fps=1.9 q=48.0 size=       1kB time=00:00:02.58 bitrate=   2.3kbits/s speed=0.0243x    frame=  211 fps=1.9 q=48.0 size=       1kB time=00:00:02.66 bitrate=   2.2kbits/s speed=0.0243x    frame=  212 fps=1.9 q=48.0 size=       1kB time=00:00:02.68 bitrate=   2.2kbits/s speed=0.0244x    frame=  214 fps=1.9 q=48.0 size=       1kB time=00:00:02.72 bitrate=   2.2kbits/s speed=0.0246x    frame=  215 fps=1.9 q=48.0 size=       1kB time=00:00:02.74 bitrate=   2.1kbits/s speed=0.0243x    frame=  216 fps=1.9 q=48.0 size=       1kB time=00:00:02.76 bitrate=   2.1kbits/s speed=0.0244x    frame=  218 fps=1.9 q=48.0 size=       1kB time=00:00:02.80 bitrate=   2.1kbits/s speed=0.0245x    frame=  219 fps=1.9 q=48.0 size=       1kB time=00:00:02.82 bitrate=   2.1kbits/s speed=0.0245x    frame=  220 fps=1.9 q=48.0 size=       1kB time=00:00:02.84 bitrate=   2.1kbits/s speed=0.0245x    frame=  221 fps=1.9 q=48.0 size=       1kB time=00:00:02.86 bitrate=   2.1kbits/s speed=0.0245x    frame=  222 fps=1.9 q=48.0 size=       1kB time=00:00:02.88 bitrate=   2.0kbits/s speed=0.0245x    frame=  224 fps=1.9 q=48.0 size=       1kB time=00:00:02.92 bitrate=   2.0kbits/s speed=0.0244x    frame=  225 fps=1.9 q=48.0 size=       1kB time=00:00:02.94 bitrate=   2.0kbits/s speed=0.0243x    frame=  226 fps=1.9 q=48.0 size=       1kB time=00:00:02.96 bitrate=   2.0kbits/s speed=0.0244x    frame=  229 fps=1.9 q=48.0 size=       1kB time=00:00:03.02 bitrate=   1.9kbits/s speed=0.0247x    frame=  230 fps=1.8 q=48.0 size=       1kB time=00:00:03.04 bitrate=   1.9kbits/s speed=0.0244x    frame=  231 fps=1.8 q=48.0 size=       1kB time=00:00:03.06 bitrate=   1.9kbits/s speed=0.0244x    frame=  234 fps=1.8 q=48.0 size=       1kB time=00:00:03.12 bitrate=   1.9kbits/s speed=0.0246x    frame=  235 fps=1.8 q=48.0 size=       1kB time=00:00:03.14 bitrate=   1.9kbits/s speed=0.0246x    frame=  236 fps=1.8 q=48.0 size=       1kB time=00:00:03.16 bitrate=   1.9kbits/s speed=0.0245x    frame=  237 fps=1.8 q=48.0 size=       1kB time=00:00:03.18 bitrate=   1.9kbits/s speed=0.0245x    frame=  239 fps=1.8 q=48.0 size=       1kB time=00:00:03.22 bitrate=   1.8kbits/s speed=0.0245x    frame=  240 fps=1.8 q=48.0 size=       1kB time=00:00:03.24 bitrate=   1.8kbits/s speed=0.0245x    frame=  241 fps=1.8 q=48.0 size=       1kB time=00:00:03.26 bitrate=   1.8kbits/s speed=0.0245x    frame=  244 fps=1.8 q=48.0 size=       1kB time=00:00:03.32 bitrate=   1.8kbits/s speed=0.0248x    frame=  245 fps=1.8 q=48.0 size=       1kB time=00:00:03.34 bitrate=   1.8kbits/s speed=0.0245x    frame=  246 fps=1.8 q=48.0 size=       1kB time=00:00:03.36 bitrate=   1.8kbits/s speed=0.0244x    frame=  249 fps=1.8 q=48.0 size=       1kB time=00:00:03.42 bitrate=   1.7kbits/s speed=0.0248x    frame=  250 fps=1.8 q=48.0 size=       1kB time=00:00:03.44 bitrate=   1.7kbits/s speed=0.0247x    frame=  251 fps=1.8 q=48.0 size=       1kB time=00:00:03.46 bitrate=   1.7kbits/s speed=0.0244x    frame=  252 fps=1.8 q=48.0 size=       1kB time=00:00:03.48 bitrate=   1.7kbits/s speed=0.0245x    frame=  256 fps=1.8 q=48.0 size=       1kB time=00:00:03.56 bitrate=   1.7kbits/s speed=0.0248x    frame=  257 fps=1.8 q=48.0 size=       1kB time=00:00:03.58 bitrate=   1.6kbits/s speed=0.0245x    frame=  260 fps=1.8 q=48.0 size=       1kB time=00:00:03.64 bitrate=   1.6kbits/s speed=0.0248x    frame=  261 fps=1.8 q=48.0 size=       1kB time=00:00:03.66 bitrate=   1.6kbits/s speed=0.0247x    frame=  263 fps=1.8 q=48.0 size=       1kB time=00:00:03.70 bitrate=   1.6kbits/s speed=0.0247x    frame=  264 fps=1.7 q=48.0 size=       1kB time=00:00:03.72 bitrate=   1.6kbits/s speed=0.0246x    frame=  265 fps=1.7 q=48.0 size=       1kB time=00:00:03.74 bitrate=   1.6kbits/s speed=0.0246x    frame=  267 fps=1.7 q=48.0 size=       1kB time=00:00:03.78 bitrate=   1.6kbits/s speed=0.0247x    frame=  268 fps=1.7 q=48.0 size=       1kB time=00:00:03.80 bitrate=   1.5kbits/s speed=0.0246x    frame=  269 fps=1.7 q=48.0 size=       1kB time=00:00:03.82 bitrate=   1.5kbits/s speed=0.0246x    frame=  270 fps=1.7 q=48.0 size=       1kB time=00:00:03.84 bitrate=   1.5kbits/s speed=0.0247x    frame=  271 fps=1.7 q=48.0 size=       1kB time=00:00:03.86 bitrate=   1.5kbits/s speed=0.0247x    frame=  273 fps=1.7 q=48.0 size=       1kB time=00:00:03.90 bitrate=   1.5kbits/s speed=0.0247x    frame=  274 fps=1.7 q=48.0 size=       1kB time=00:00:03.92 bitrate=   1.5kbits/s speed=0.0246x    frame=  277 fps=1.7 q=48.0 size=       1kB time=00:00:03.98 bitrate=   1.5kbits/s speed=0.0246x    frame=  278 fps=1.7 q=48.0 size=       1kB time=00:00:04.00 bitrate=   1.5kbits/s speed=0.0246x    frame=  279 fps=1.7 q=48.0 size=       1kB time=00:00:04.02 bitrate=   1.5kbits/s speed=0.0247x    frame=  282 fps=1.7 q=48.0 size=       1kB time=00:00:04.08 bitrate=   1.4kbits/s speed=0.0248x    frame=  283 fps=1.7 q=48.0 size=       1kB time=00:00:04.10 bitrate=   1.4kbits/s speed=0.0246x    frame=  285 fps=1.7 q=48.0 size=       1kB time=00:00:04.14 bitrate=   1.4kbits/s speed=0.0248x    frame=  286 fps=1.7 q=48.0 size=       1kB time=00:00:04.16 bitrate=   1.4kbits/s speed=0.0247x    frame=  287 fps=1.7 q=48.0 size=       1kB time=00:00:04.18 bitrate=   1.4kbits/s speed=0.0247x    frame=  290 fps=1.7 q=48.0 size=       1kB time=00:00:04.24 bitrate=   1.4kbits/s speed=0.0247x    frame=  291 fps=1.7 q=48.0 size=       1kB time=00:00:04.26 bitrate=   1.4kbits/s speed=0.0247x    frame=  294 fps=1.7 q=48.0 size=       1kB time=00:00:04.32 bitrate=   1.4kbits/s speed=0.0246x    frame=  295 fps=1.7 q=48.0 size=       1kB time=00:00:04.34 bitrate=   1.4kbits/s speed=0.0246x    frame=  297 fps=1.7 q=48.0 size=       1kB time=00:00:04.38 bitrate=   1.3kbits/s speed=0.0248x    frame=  299 fps=1.7 q=48.0 size=       1kB time=00:00:04.42 bitrate=   1.3kbits/s speed=0.0249x    frame=  300 fps=1.7 q=48.0 size=       1kB time=00:00:04.44 bitrate=   1.3kbits/s speed=0.0246x    frame=  301 fps=1.7 q=48.0 size=       1kB time=00:00:04.46 bitrate=   1.3kbits/s speed=0.0247x    frame=  303 fps=1.7 q=48.0 size=       1kB time=00:00:04.50 bitrate=   1.3kbits/s speed=0.0248x    frame=  304 fps=1.7 q=48.0 size=       1kB time=00:00:04.52 bitrate=   1.3kbits/s speed=0.0248x    frame=  305 fps=1.7 q=48.0 size=       1kB time=00:00:04.54 bitrate=   1.3kbits/s speed=0.0248x    frame=  306 fps=1.7 q=48.0 size=       1kB time=00:00:04.56 bitrate=   1.3kbits/s speed=0.0247x    frame=  307 fps=1.7 q=48.0 size=       1kB time=00:00:04.58 bitrate=   1.3kbits/s speed=0.0247x    frame=  308 fps=1.7 q=48.0 size=       1kB time=00:00:04.60 bitrate=   1.3kbits/s speed=0.0247x    frame=  311 fps=1.7 q=48.0 size=       1kB time=00:00:04.66 bitrate=   1.3kbits/s speed=0.0248x    frame=  312 fps=1.6 q=48.0 size=       1kB time=00:00:04.68 bitrate=   1.3kbits/s speed=0.0247x    frame=  313 fps=1.6 q=48.0 size=       1kB time=00:00:04.70 bitrate=   1.3kbits/s speed=0.0248x    frame=  314 fps=1.6 q=48.0 size=       1kB time=00:00:04.72 bitrate=   1.2kbits/s speed=0.0248x    frame=  315 fps=1.6 q=48.0 size=       1kB time=00:00:04.74 bitrate=   1.2kbits/s speed=0.0247x    frame=  316 fps=1.6 q=48.0 size=       1kB time=00:00:04.76 bitrate=   1.2kbits/s speed=0.0247x    frame=  317 fps=1.6 q=48.0 size=       1kB time=00:00:04.78 bitrate=   1.2kbits/s speed=0.0247x    frame=  319 fps=1.6 q=48.0 size=       1kB time=00:00:04.82 bitrate=   1.2kbits/s speed=0.0247x    frame=  320 fps=1.6 q=48.0 size=       1kB time=00:00:04.84 bitrate=   1.2kbits/s speed=0.0247x    frame=  323 fps=1.6 q=48.0 size=       1kB time=00:00:04.90 bitrate=   1.2kbits/s speed=0.0249x    frame=  325 fps=1.6 q=48.0 size=       1kB time=00:00:04.94 bitrate=   1.2kbits/s speed=0.0249x    frame=  326 fps=1.6 q=48.0 size=    4337kB time=00:00:04.96 bitrate=7161.7kbits/s speed=0.0249x    frame=  332 fps=1.7 q=48.0 size=    4337kB time=00:00:05.08 bitrate=6992.6kbits/s speed=0.0253x    frame=  336 fps=1.7 q=48.0 size=    4337kB time=00:00:05.16 bitrate=6884.2kbits/s speed=0.0256x    frame=  338 fps=1.7 q=48.0 size=    4337kB time=00:00:05.20 bitrate=6831.3kbits/s speed=0.0256x    frame=  341 fps=1.7 q=48.0 size=    4337kB time=00:00:05.26 bitrate=6753.3kbits/s speed=0.0258x    frame=  343 fps=1.7 q=48.0 size=    4337kB time=00:00:05.30 bitrate=6702.4kbits/s speed=0.0258x    frame=  345 fps=1.7 q=48.0 size=    4337kB time=00:00:05.34 bitrate=6652.2kbits/s speed=0.0258x    frame=  347 fps=1.7 q=48.0 size=    4337kB time=00:00:05.38 bitrate=6602.7kbits/s speed=0.0259x    frame=  349 fps=1.7 q=48.0 size=    4337kB time=00:00:05.42 bitrate=6554.0kbits/s speed=0.0259x    frame=  350 fps=1.7 q=48.0 size=    4337kB time=00:00:05.44 bitrate=6529.9kbits/s speed=0.0259x    frame=  353 fps=1.7 q=48.0 size=    4337kB time=00:00:05.50 bitrate=6458.7kbits/s speed=0.0259x    frame=  354 fps=1.7 q=48.0 size=    4337kB time=00:00:05.52 bitrate=6435.3kbits/s speed=0.0259x    frame=  356 fps=1.7 q=48.0 size=    4337kB time=00:00:05.56 bitrate=6389.0kbits/s speed=0.026x    frame=  357 fps=1.7 q=48.0 size=    4337kB time=00:00:05.58 bitrate=6366.1kbits/s speed=0.0259x    frame=  358 fps=1.7 q=48.0 size=    4337kB time=00:00:05.60 bitrate=6343.4kbits/s speed=0.0258x    frame=  359 fps=1.7 q=48.0 size=    4337kB time=00:00:05.62 bitrate=6320.8kbits/s speed=0.0258x    frame=  362 fps=1.7 q=48.0 size=    4337kB time=00:00:05.68 bitrate=6254.1kbits/s speed=0.0259x    frame=  363 fps=1.7 q=48.0 size=    4337kB time=00:00:05.70 bitrate=6232.1kbits/s speed=0.0259x    frame=  365 fps=1.6 q=48.0 size=    4337kB time=00:00:05.74 bitrate=6188.7kbits/s speed=0.0258x    frame=  366 fps=1.6 q=48.0 size=    4337kB time=00:00:05.76 bitrate=6167.2kbits/s speed=0.0259x    frame=  367 fps=1.6 q=48.0 size=    4337kB time=00:00:05.78 bitrate=6145.9kbits/s speed=0.0259x    frame=  369 fps=1.6 q=48.0 size=    4337kB time=00:00:05.82 bitrate=6103.6kbits/s speed=0.0259x    frame=  370 fps=1.6 q=48.0 size=    4337kB time=00:00:05.84 bitrate=6082.7kbits/s speed=0.0259x    frame=  371 fps=1.6 q=48.0 size=    4337kB time=00:00:05.86 bitrate=6062.0kbits/s speed=0.0259x    frame=  372 fps=1.6 q=48.0 size=    4337kB time=00:00:05.88 bitrate=6041.4kbits/s speed=0.0259x    frame=  373 fps=1.6 q=48.0 size=    4337kB time=00:00:05.90 bitrate=6020.9kbits/s speed=0.0258x    frame=  374 fps=1.6 q=48.0 size=    4337kB time=00:00:05.92 bitrate=6000.6kbits/s speed=0.0258x    frame=  377 fps=1.6 q=48.0 size=    4337kB time=00:00:05.98 bitrate=5940.4kbits/s speed=0.026x    frame=  378 fps=1.6 q=48.0 size=    4337kB time=00:00:06.00 bitrate=5920.6kbits/s speed=0.0259x    frame=  379 fps=1.6 q=48.0 size=    4337kB time=00:00:06.02 bitrate=5900.9kbits/s speed=0.0258x    frame=  381 fps=1.6 q=48.0 size=    4337kB time=00:00:06.06 bitrate=5862.0kbits/s speed=0.0259x    frame=  382 fps=1.6 q=48.0 size=    4337kB time=00:00:06.08 bitrate=5842.7kbits/s speed=0.0259x    frame=  383 fps=1.6 q=48.0 size=    4337kB time=00:00:06.10 bitrate=5823.5kbits/s speed=0.0259x    frame=  384 fps=1.6 q=48.0 size=    4337kB time=00:00:06.12 bitrate=5804.5kbits/s speed=0.0259x    frame=  385 fps=1.6 q=48.0 size=    4337kB time=00:00:06.14 bitrate=5785.6kbits/s speed=0.0259x    frame=  386 fps=1.6 q=48.0 size=    4337kB time=00:00:06.16 bitrate=5766.8kbits/s speed=0.0258x    frame=  387 fps=1.6 q=48.0 size=    4337kB time=00:00:06.18 bitrate=5748.2kbits/s speed=0.0258x    frame=  388 fps=1.6 q=48.0 size=    4337kB time=00:00:06.20 bitrate=5729.6kbits/s speed=0.0258x    frame=  391 fps=1.6 q=48.0 size=    4337kB time=00:00:06.26 bitrate=5674.7kbits/s speed=0.0258x    frame=  394 fps=1.6 q=48.0 size=    4337kB time=00:00:06.32 bitrate=5620.8kbits/s speed=0.0258x    frame=  395 fps=1.6 q=48.0 size=    4337kB time=00:00:06.34 bitrate=5603.1kbits/s speed=0.0259x    frame=  397 fps=1.6 q=48.0 size=    4337kB time=00:00:06.38 bitrate=5568.0kbits/s speed=0.0258x    frame=  398 fps=1.6 q=48.0 size=    4337kB time=00:00:06.40 bitrate=5550.6kbits/s speed=0.0258x    frame=  399 fps=1.6 q=48.0 size=    4337kB time=00:00:06.42 bitrate=5533.3kbits/s speed=0.0258x    frame=  401 fps=1.6 q=48.0 size=    4337kB time=00:00:06.46 bitrate=5499.0kbits/s speed=0.0259x    frame=  402 fps=1.6 q=48.0 size=    4337kB time=00:00:06.48 bitrate=5482.1kbits/s speed=0.0258x    frame=  403 fps=1.6 q=48.0 size=    4337kB time=00:00:06.50 bitrate=5465.2kbits/s speed=0.0258x    frame=  404 fps=1.6 q=48.0 size=    4337kB time=00:00:06.52 bitrate=5448.4kbits/s speed=0.0258x    frame=  405 fps=1.6 q=48.0 size=    4337kB time=00:00:06.54 bitrate=5431.8kbits/s speed=0.0258x    frame=  406 fps=1.6 q=48.0 size=    4337kB time=00:00:06.56 bitrate=5415.2kbits/s speed=0.0258x    frame=  407 fps=1.6 q=48.0 size=    4337kB time=00:00:06.58 bitrate=5398.8kbits/s speed=0.0258x    frame=  408 fps=1.6 q=48.0 size=    4337kB time=00:00:06.60 bitrate=5382.4kbits/s speed=0.0257x    frame=  410 fps=1.6 q=48.0 size=    4337kB time=00:00:06.64 bitrate=5350.0kbits/s speed=0.0258x    frame=  411 fps=1.6 q=48.0 size=    4337kB time=00:00:06.66 bitrate=5333.9kbits/s speed=0.0258x    frame=  412 fps=1.6 q=48.0 size=    4337kB time=00:00:06.68 bitrate=5318.0kbits/s speed=0.0257x    frame=  415 fps=1.6 q=48.0 size=    4337kB time=00:00:06.74 bitrate=5270.6kbits/s speed=0.0257x    frame=  416 fps=1.6 q=48.0 size=    4337kB time=00:00:06.76 bitrate=5255.0kbits/s speed=0.0257x    frame=  417 fps=1.6 q=48.0 size=    4337kB time=00:00:06.78 bitrate=5239.5kbits/s speed=0.0257x    frame=  419 fps=1.6 q=48.0 size=    4337kB time=00:00:06.82 bitrate=5208.8kbits/s speed=0.0257x    frame=  420 fps=1.6 q=48.0 size=    4337kB time=00:00:06.84 bitrate=5193.6kbits/s speed=0.0257x    frame=  421 fps=1.6 q=48.0 size=    4337kB time=00:00:06.86 bitrate=5178.4kbits/s speed=0.0256x    frame=  424 fps=1.6 q=48.0 size=    4337kB time=00:00:06.92 bitrate=5133.6kbits/s speed=0.0257x    frame=  425 fps=1.6 q=48.0 size=    4337kB time=00:00:06.94 bitrate=5118.8kbits/s speed=0.0257x    frame=  427 fps=1.6 q=48.0 size=    4337kB time=00:00:06.98 bitrate=5089.4kbits/s speed=0.0257x    frame=  428 fps=1.6 q=48.0 size=    4337kB time=00:00:07.00 bitrate=5074.9kbits/s speed=0.0256x    frame=  430 fps=1.6 q=48.0 size=    4337kB time=00:00:07.04 bitrate=5046.1kbits/s speed=0.0257x    frame=  433 fps=1.6 q=48.0 size=    4337kB time=00:00:07.10 bitrate=5003.4kbits/s speed=0.0257x    frame=  434 fps=1.6 q=48.0 size=    4337kB time=00:00:07.12 bitrate=4989.4kbits/s speed=0.0256x    frame=  436 fps=1.6 q=48.0 size=    4337kB time=00:00:07.16 bitrate=4961.5kbits/s speed=0.0257x    frame=  437 fps=1.6 q=48.0 size=    4337kB time=00:00:07.18 bitrate=4947.7kbits/s speed=0.0257x    frame=  438 fps=1.6 q=48.0 size=    4337kB time=00:00:07.20 bitrate=4933.9kbits/s speed=0.0257x    frame=  439 fps=1.6 q=48.0 size=    4337kB time=00:00:07.22 bitrate=4920.3kbits/s speed=0.0257x    frame=  440 fps=1.6 q=48.0 size=    4337kB time=00:00:07.24 bitrate=4906.7kbits/s speed=0.0257x    frame=  441 fps=1.6 q=48.0 size=    4337kB time=00:00:07.26 bitrate=4893.2kbits/s speed=0.0256x    frame=  442 fps=1.6 q=48.0 size=    4337kB time=00:00:07.28 bitrate=4879.7kbits/s speed=0.0256x    frame=  445 fps=1.6 q=48.0 size=    4337kB time=00:00:07.34 bitrate=4839.8kbits/s speed=0.0257x    frame=  446 fps=1.6 q=48.0 size=    4337kB time=00:00:07.36 bitrate=4826.7kbits/s speed=0.0257x    frame=  447 fps=1.6 q=48.0 size=    4337kB time=00:00:07.38 bitrate=4813.6kbits/s speed=0.0257x    frame=  448 fps=1.6 q=48.0 size=    4337kB time=00:00:07.40 bitrate=4800.6kbits/s speed=0.0256x    frame=  449 fps=1.6 q=48.0 size=    4337kB time=00:00:07.42 bitrate=4787.7kbits/s speed=0.0256x    frame=  450 fps=1.5 q=48.0 size=    4337kB time=00:00:07.44 bitrate=4774.8kbits/s speed=0.0256x    frame=  451 fps=1.5 q=48.0 size=    4337kB time=00:00:07.46 bitrate=4762.0kbits/s speed=0.0256x    frame=  454 fps=1.5 q=48.0 size=    4337kB time=00:00:07.52 bitrate=4724.0kbits/s speed=0.0256x    frame=  455 fps=1.5 q=48.0 size=    4337kB time=00:00:07.54 bitrate=4711.5kbits/s speed=0.0256x    frame=  457 fps=1.5 q=48.0 size=    4337kB time=00:00:07.58 bitrate=4686.6kbits/s speed=0.0256x    frame=  458 fps=1.5 q=48.0 size=    4337kB time=00:00:07.60 bitrate=4674.3kbits/s speed=0.0256x    frame=  459 fps=1.5 q=48.0 size=    4337kB time=00:00:07.62 bitrate=4662.0kbits/s speed=0.0256x    frame=  461 fps=1.5 q=48.0 size=    4337kB time=00:00:07.66 bitrate=4637.7kbits/s speed=0.0256x    frame=  462 fps=1.5 q=48.0 size=    4337kB time=00:00:07.68 bitrate=4625.6kbits/s speed=0.0256x    frame=  463 fps=1.5 q=48.0 size=    4337kB time=00:00:07.70 bitrate=4613.6kbits/s speed=0.0257x    frame=  465 fps=1.5 q=48.0 size=    4337kB time=00:00:07.74 bitrate=4589.8kbits/s speed=0.0257x    frame=  466 fps=1.5 q=48.0 size=    4337kB time=00:00:07.76 bitrate=4577.9kbits/s speed=0.0257x    frame=  468 fps=1.5 q=48.0 size=    4337kB time=00:00:07.80 bitrate=4554.5kbits/s speed=0.0256x    frame=  469 fps=1.5 q=48.0 size=    4337kB time=00:00:07.82 bitrate=4542.8kbits/s speed=0.0256x    frame=  471 fps=1.5 q=48.0 size=    4337kB time=00:00:07.86 bitrate=4519.7kbits/s speed=0.0256x    frame=  473 fps=1.5 q=48.0 size=    4337kB time=00:00:07.90 bitrate=4496.8kbits/s speed=0.0257x    frame=  474 fps=1.5 q=48.0 size=    4337kB time=00:00:07.92 bitrate=4485.5kbits/s speed=0.0255x    frame=  476 fps=1.5 q=48.0 size=    4337kB time=00:00:07.96 bitrate=4462.9kbits/s speed=0.0256x    frame=  479 fps=1.5 q=48.0 size=    4337kB time=00:00:08.02 bitrate=4429.5kbits/s speed=0.0256x    frame=  480 fps=1.5 q=48.0 size=    4337kB time=00:00:08.04 bitrate=4418.5kbits/s speed=0.0256x    frame=  482 fps=1.5 q=48.0 size=    4337kB time=00:00:08.08 bitrate=4396.7kbits/s speed=0.0256x    frame=  483 fps=1.5 q=48.0 size=    4337kB time=00:00:08.10 bitrate=4385.8kbits/s speed=0.0256x    frame=  484 fps=1.5 q=48.0 size=    4337kB time=00:00:08.12 bitrate=4375.0kbits/s speed=0.0256x    frame=  486 fps=1.5 q=48.0 size=    4337kB time=00:00:08.16 bitrate=4353.6kbits/s speed=0.0256x    frame=  487 fps=1.5 q=48.0 size=    4337kB time=00:00:08.18 bitrate=4342.9kbits/s speed=0.0255x    frame=  489 fps=1.5 q=48.0 size=    4337kB time=00:00:08.22 bitrate=4321.8kbits/s speed=0.0256x    frame=  490 fps=1.5 q=48.0 size=    4337kB time=00:00:08.24 bitrate=4311.3kbits/s speed=0.0256x    frame=  491 fps=1.5 q=48.0 size=    4337kB time=00:00:08.26 bitrate=4300.9kbits/s speed=0.0256x    frame=  493 fps=1.5 q=48.0 size=    4337kB time=00:00:08.30 bitrate=4280.1kbits/s speed=0.0256x    frame=  494 fps=1.5 q=48.0 size=    4337kB time=00:00:08.32 bitrate=4269.8kbits/s speed=0.0255x    frame=  495 fps=1.5 q=48.0 size=    4337kB time=00:00:08.34 bitrate=4259.6kbits/s speed=0.0255x    frame=  496 fps=1.5 q=48.0 size=    4337kB time=00:00:08.36 bitrate=4249.4kbits/s speed=0.0255x    frame=  498 fps=1.5 q=48.0 size=    4337kB time=00:00:08.40 bitrate=4229.2kbits/s speed=0.0256x    frame=  499 fps=1.5 q=48.0 size=    4337kB time=00:00:08.42 bitrate=4219.1kbits/s speed=0.0256x    frame=  500 fps=1.5 q=48.0 size=    4337kB time=00:00:08.44 bitrate=4209.1kbits/s speed=0.0255x    frame=  500 fps=1.3 q=-1.0 Lsize=    8594kB time=00:00:09.94 bitrate=7081.7kbits/s speed=0.0256x    
video:8589kB audio:0kB subtitle:0kB other streams:0kB global headers:0kB muxing overhead: 0.050822%
bench: utime=1495.884s
bench: maxrss=3271132kB
[libx264 @ 0x378b1c0] frame I:2     Avg QP:39.37  size:244344
[libx264 @ 0x378b1c0] frame P:114   Avg QP:48.60  size: 34752
[libx264 @ 0x378b1c0] frame B:384   Avg QP:48.98  size: 11313
[libx264 @ 0x378b1c0] consecutive B-frames:  0.4%  0.0%  1.2% 60.0% 30.0%  8.4%  0.0%  0.0%  0.0%
[libx264 @ 0x378b1c0] mb I  I16..4: 25.0% 69.6%  5.4%
[libx264 @ 0x378b1c0] mb P  I16..4:  2.6%  4.0%  0.0%  P16..4: 32.8%  1.5%  3.8%  0.0%  0.0%    skip:55.3%
[libx264 @ 0x378b1c0] mb B  I16..4:  0.0%  0.1%  0.0%  B16..8: 32.8%  0.6%  0.0%  direct: 0.1%  skip:66.5%  L0:43.1% L1:56.7% BI: 0.2%
[libx264 @ 0x378b1c0] final ratefactor: 40.22
[libx264 @ 0x378b1c0] 8x8 transform intra:62.5% inter:93.9%
[libx264 @ 0x378b1c0] direct mvs  spatial:99.2% temporal:0.8%
[libx264 @ 0x378b1c0] coded y,uvDC,uvAC intra: 17.5% 37.4% 9.4% inter: 0.7% 3.0% 0.0%
[libx264 @ 0x378b1c0] i16 v,h,dc,p: 38% 24%  5% 33%
[libx264 @ 0x378b1c0] i8 v,h,dc,ddl,ddr,vr,hd,vl,hu:  9%  4% 23% 10% 13% 12% 11%  9%  9%
[libx264 @ 0x378b1c0] i4 v,h,dc,ddl,ddr,vr,hd,vl,hu:  6%  4%  2% 13% 17% 16% 15% 12% 16%
[libx264 @ 0x378b1c0] i8c dc,h,v,p: 63% 16% 13%  8%
[libx264 @ 0x378b1c0] Weighted P-Frames: Y:1.8% UV:0.9%
[libx264 @ 0x378b1c0] ref P L0: 56.0%  1.9% 15.2%  4.9%  4.2%  3.6%  3.5%  1.6%  1.5%  1.2%  1.2%  1.1%  1.1%  1.1%  1.2%  0.7%
[libx264 @ 0x378b1c0] ref B L0: 93.5%  3.1%  1.2%  0.4%  0.3%  0.3%  0.3%  0.1%  0.1%  0.1%  0.1%  0.1%  0.1%  0.1%  0.1%
[libx264 @ 0x378b1c0] ref B L1: 98.8%  1.2%
[libx264 @ 0x378b1c0] kb/s:7035.74
